<svg xmlns="http://www.w3.org/2000/svg" width="16" height="16" viewBox="0 0 16 16"><path d="M6.66699 2.47461C6.95676 2.47479 7.19136 2.7102 7.19141 3C7.19141 3.28984 6.95679 3.52521 6.66699 3.52539H5.33301C4.33458 3.52557 3.52562 4.33459 3.52539 5.33301V10.667C3.52557 11.6654 4.33455 12.4744 5.33301 12.4746H10.667C11.6654 12.4744 12.4744 11.6654 12.4746 10.667V9.33301C12.4748 9.04325 12.7102 8.80859 13 8.80859C13.2898 8.80859 13.5252 9.04325 13.5254 9.33301V10.667C13.5252 12.2453 12.2453 13.5252 10.667 13.5254H5.33301C3.75465 13.5252 2.47479 12.2453 2.47461 10.667V5.33301C2.47484 3.75469 3.75468 2.47479 5.33301 2.47461H6.66699Z" fill="currentColor"/> <path d="M13.4072 1.81738C13.8352 1.81738 14.1816 2.16477 14.1816 2.59277L14.1826 5.87695C14.1825 6.16664 13.9479 6.40209 13.6582 6.40234C13.3683 6.40234 13.1329 6.1668 13.1328 5.87695V3.61621L9.21387 7.53516C9.00885 7.74017 8.67573 7.74015 8.4707 7.53516C8.26568 7.33013 8.26568 6.99702 8.4707 6.79199L12.3955 2.86719H10.123C9.83327 2.86714 9.59885 2.63251 9.59863 2.34277C9.59863 2.05285 9.83313 1.81743 10.123 1.81738H13.4072Z" fill="currentColor"/></svg>
